<?xml version="1.0" encoding="utf-8"?>
<svg version="1.2" baseProfile="tiny-ps" xmlns="http://www.w3.org/2000/svg" width="510px" height="170px" viewBox="0 0 510 170" preserveAspectRatio="xMidYMid meet">
 <g fill="#ffffff">
  <path d="M0 85 l0 -85 255 0 255 0 0 85 0 85 -255 0 -255 0 0 -85z m93.9 47.5 c21.6 -5.1 37.4 -23.2 40.6 -46.5 0.6 -4.2 1.8 -5.8 19.5 -24 12.1 -12.4 19 -20.3 19 -21.6 0 -2.7 -3.5 -6.4 -6.3 -6.4 -1.6 -0.1 -12.7 10.6 -40.8 39.1 l-38.6 39.2 -4.8 -0.5 c-4.5 -0.6 -5.4 -1.2 -16.6 -12.4 l-11.9 -11.9 0 -6.2 c0 -5.6 0.3 -6.4 2.5 -7.9 1.8 -1.2 3.9 -1.5 7.6 -1.2 4.7 0.5 5.6 1.1 11.8 7.2 l6.8 6.7 13.4 -13.8 c7.4 -7.6 15.6 -15.9 18.4 -18.5 l5 -4.7 -3 -3.1 c-3.8 -4 -17.2 -10.5 -24.9 -12 -17.2 -3.5 -39.1 6.8 -49.8 23.4 -7.3 11.4 -9.8 26.5 -6.3 38.4 5.1 17.1 21.2 32.5 38.1 36.6 7.7 1.9 12.5 1.9 20.3 0.1z m76.9 -1.5 c1.2 -1.1 2.4 -3.1 2.7 -4.3 0.3 -1.2 0.4 -14.2 0.3 -28.8 l-0.3 -26.7 -7.3 8 -7.3 8 0.3 20.5 0.3 20.5 2.8 2.4 c3.4 2.9 5.6 3 8.5 0.4z m43.2 -31.1 l0.5 -10.4 9 0 8.9 0 5.1 9.6 c5.9 11.3 6.3 11.9 7.6 11.9 0.6 0 -1 -3.9 -3.5 -8.6 -3 -5.7 -4.6 -9.9 -4.6 -12.3 l0 -3.6 -11.2 0 -11.3 0 -0.3 -12.3 -0.3 -12.2 2.6 -1 c3 -1.1 9.2 -1.3 15.9 -0.4 3.1 0.5 5.7 1.6 7.6 3.4 2.7 2.6 3 3.4 3 9.3 0 5.6 -0.4 7 -2.6 9.6 -2.7 3.3 -2.2 4 1 1.6 8.6 -6.5 6.9 -17.7 -3.4 -23.5 -4 -2.2 -5.7 -2.4 -16 -2.5 l-11.5 0 -0.3 25 c-0.1 13.7 0 25.6 0.3 26.3 0.3 0.8 1.1 1.2 1.8 1 0.8 -0.3 1.4 -3.8 1.7 -10.9z m98.4 9.5 c0.3 -0.9 0.6 -5.8 0.6 -11 l0 -9.5 8.8 0.3 8.7 0.3 5 9.7 c5 9.7 7 12.6 8 11.6 0.3 -0.3 -1.5 -4.2 -4 -8.7 -5.5 -10 -5.9 -14.3 -1.6 -16.6 7 -3.6 9.3 -13.7 4.5 -19.5 -5 -5.9 -9.5 -7.4 -22.4 -7.4 l-11.5 -0.1 -0.3 25 c-0.1 13.7 0 25.5 0.3 26.2 0.6 1.8 3.2 1.6 3.9 -0.3z m67.4 -23.6 l0.2 -24.8 8.6 0 c6.4 0 8.5 -0.3 8.2 -1.2 -0.6 -1.6 -38.8 -1.9 -38.8 -0.3 0 0.6 3.7 1.2 8.2 1.5 l8.3 0.5 0.3 24.8 0.2 24.8 2.3 -0.3 2.2 -0.3 0.3 -24.7z m34 4.8 l0.2 -19.8 4 0.4 c2.2 0.2 4 0.2 4 0.1 0 -0.1 -1.1 -2.8 -2.5 -6 -2.7 -6 -3.9 -7.3 -6.7 -7.3 -1.7 0 -1.8 1.9 -1.8 26.6 0 20.8 0.3 26.5 1.3 26.2 0.9 -0.4 1.3 -5.5 1.5 -20.2z m51.2 -5.7 l0 -26 -3.2 0.3 c-2.9 0.3 -3.4 0.9 -5.5 6.3 -1.3 3.2 -2.3 6.1 -2.3 6.2 0 0.2 1.8 0.3 4 0.3 l4 0 0 19.5 c0 16.7 0.2 19.5 1.5 19.5 1.3 0 1.5 -3.6 1.5 -26.1z m-24.4 21.6 c1.9 -4.6 2 -4.5 -2.6 -4.5 -4.6 0 -4.5 -0.1 -2.6 4.5 1.9 4.4 3.3 4.4 5.2 0z m-176.1 -14 c0 -6.3 -0.1 -11.5 -0.3 -11.5 -0.9 0 -4.2 9 -4.2 11.5 0 2.5 3.3 11.5 4.2 11.5 0.2 0 0.3 -5.2 0.3 -11.5z m28.8 -3.7 c-0.6 -3.5 -3 -8.8 -3.9 -8.8 -0.2 0 0 0.9 0.6 2 0.6 1.2 1 3.5 0.8 5.3 l-0.3 3.2 -9.5 0.6 -9.5 0.5 11.2 0.2 11.3 0.2 -0.7 -3.2z m-7.8 -12.8 c-1.1 -1.7 -8.1 -3.1 -10.6 -2.1 -2.1 0.8 -1.8 1 2.1 1.1 2.5 0.1 5.4 0.5 6.5 1 2.7 1.1 2.7 1.1 2 0z"/>
  <path d="M313 74.1 l0 -13 4.6 -0.7 c5.3 -0.8 14.6 0.1 17.8 1.7 4.2 2.2 5.6 5.1 5.6 11.6 0 5.5 -0.3 6.7 -2.9 9.5 l-2.9 3.3 -11.1 0.3 -11.1 0.4 0 -13.1z"/>
 </g>
 <g fill="#4689df">
  <path d="M70.6 135.4 c-16.1 -3.9 -32.3 -18.8 -37.5 -34.7 -2 -6 -3.1 -15.8 -2.4 -21.9 0.5 -4.8 0.9 -5.8 2.4 -5.8 1.1 0 1.9 0.6 1.9 1.4 0 1.6 10 6.6 13.1 6.6 2.2 0 3.1 1.3 4.6 7 1.8 6.6 1.7 14 -0.2 14 -1.5 0 -4.2 4 -2.8 4.1 0.4 0 3.7 0.1 7.3 0.3 6.9 0.3 12.5 1.5 17.5 3.6 6.3 2.6 7.1 2.9 11.7 3.5 2.6 0.3 5 1 5.3 1.5 0.3 0.4 3.2 1.1 6.5 1.5 3.3 0.4 6 1.1 6 1.6 0 0.5 0.7 0.9 1.6 0.9 0.9 0 1.8 0.8 2.1 1.8 0.2 1 1.8 2.3 3.4 3 4.3 1.6 3.4 4.1 -2.6 7.4 -10 5.5 -25.6 7.2 -37.9 4.2z"/>
  <path d="M170.6 134.4 c-0.3 -0.9 -0.6 -2.2 -0.6 -3 0 -0.8 -1.5 -2.8 -3.2 -4.4 -2.8 -2.5 -3.9 -2.8 -7 -2.3 l-3.8 0.6 0 -20.2 c0 -12 0.4 -21 1 -22.2 1.4 -2.5 4.2 -2.4 6.6 0.2 2.9 3.2 5.5 4.3 9.7 4 l3.7 -0.2 0 21 c0 21.5 -0.5 24.7 -4 26.9 -1.4 0.9 -1.9 0.8 -2.4 -0.4z"/>
  <path d="M127 113 c0 -0.5 -0.6 -1 -1.2 -1 -0.7 0 -2.4 -0.9 -3.8 -2 -1.4 -1.1 -3.7 -2 -5.1 -2 -1.5 0 -3.7 -1.2 -5.5 -3.1 -4.1 -4.3 -8.1 -7.1 -11.4 -7.8 -2.7 -0.6 -2.2 -1.2 15.1 -19.1 l17.9 -18.5 0 4.3 c0 2.3 0.5 4.2 1 4.2 0.6 0 2.9 1.2 5.2 2.6 2.7 1.7 4.3 2.3 4.6 1.5 0.2 -0.6 2 -1.1 4 -1.1 l3.6 0 -6.6 6.8 c-6.4 6.4 -6.8 7 -7.8 13.3 -1.2 7.7 -3.1 13.5 -6.2 19 -2.1 3.7 -3.8 5 -3.8 2.9z"/>
  <path d="M83.3 89.3 c-0.7 -0.3 -1.3 -1.4 -1.3 -2.6 0 -1.4 -1 -2.6 -2.5 -3.4 -2.2 -1 -2.5 -0.9 -2.5 1 0 1.8 -0.8 1.3 -5.2 -3 -6.3 -6 -8.9 -7.1 -12.3 -4.9 -2.4 1.6 -2.5 1.6 -2.5 -1.1 0 -3.2 0.9 -4.8 3 -5.6 1.2 -0.4 1.1 -0.6 -0.2 -0.6 -1 -0.1 -1.8 -0.5 -1.8 -1 0 -0.6 -2.3 -1.1 -5.2 -1.3 -5 -0.3 -5.3 -0.5 -6.2 -3.5 -0.6 -2.2 -1.5 -3.3 -2.7 -3.3 -1 0 -2.1 -0.4 -2.4 -1 -0.3 -0.5 -1.5 -1 -2.6 -1 -2.5 0 -2.4 -0.4 1.1 -5.5 6.1 -8.8 22.1 -19.8 28.9 -19.7 1.4 0 2.8 -0.4 3.1 -0.9 0.3 -0.4 2.9 -1.1 5.8 -1.5 4.8 -0.6 5.2 -0.5 5.2 1.4 0 2 -2.3 3.1 -7 3.3 -2.5 0 -2.5 0 -0.3 1.1 1.2 0.6 2.3 2 2.5 3.2 0.2 1.5 1.1 2.2 3.4 2.4 2 0.2 3.5 1.1 4.1 2.4 1 2.4 7.3 4.8 12.6 4.8 3.3 0 3.7 0.3 3.7 2.5 0 2 0.5 2.5 2.8 2.6 4.9 0.3 9.7 -0.3 10 -1.2 0.2 -0.5 2 -0.9 4 -0.9 l3.7 0.1 -3.5 3.2 c-2 1.8 -9.8 9.7 -17.5 17.7 -15.5 16 -16.4 16.9 -18.2 16.3z"/>
  <path d="M162.3 57.3 c-0.7 -0.3 -1.3 -1.1 -1.3 -1.9 0 -0.8 -0.6 -1.4 -1.3 -1.4 -0.7 0 -3 -0.9 -5.2 -2 -2.1 -1.1 -5.4 -2.3 -7.3 -2.6 l-3.4 -0.7 7.9 -7.9 c10.5 -10.7 13.9 -12.3 19.7 -9.7 3.4 1.6 6 7.2 5.2 11.2 -0.9 4.4 -11.9 15.9 -14.3 15z"/>
 </g>
 <g fill="#5593df">
  <path d="M160.9 134.7 c-1.8 -1.2 -3.6 -3.3 -4 -4.7 -0.9 -3.2 -1.1 -9.5 -0.3 -8.7 0.4 0.3 1.2 0 2 -0.7 1.1 -1.1 2 -1.2 4.7 -0.2 4.5 1.5 9.7 6 9.7 8.5 0 1 0.6 2.2 1.3 2.4 2 0.9 -4 5.7 -7.2 5.7 -1.5 0 -4.3 -1 -6.2 -2.3z"/>
  <path d="M110.7 128.6 c-0.4 -0.9 -1.7 -1.8 -3.1 -2.2 -1.3 -0.3 -2.6 -1.4 -2.9 -2.5 -0.3 -1 -1.2 -1.9 -2.1 -1.9 -0.9 0 -1.6 -0.5 -1.6 -1 0 -0.6 -1 -0.8 -2.4 -0.4 -1.3 0.3 -2.7 0.1 -3 -0.4 -0.7 -1.2 -4.6 -0.4 -4.6 0.9 0 1.9 -1.9 0.8 -2.2 -1.3 -0.2 -1.3 -0.9 -2.2 -1.7 -2 -0.7 0.1 -1.9 -0.2 -2.7 -0.9 -0.8 -0.6 -2.1 -0.9 -3 -0.5 -0.8 0.3 -2.5 0 -3.7 -0.6 -3.2 -1.8 -8.8 -3.8 -11.9 -4.3 -1.5 -0.2 -3.5 -0.8 -4.5 -1.3 -2 -1 -15.9 -0.9 -16.9 0.1 -0.4 0.4 -1.4 0.7 -2.1 0.7 -1.8 0 -0.7 -4.1 1.3 -5.3 0.8 -0.4 2.1 -2.1 2.9 -3.7 0.9 -1.7 2.2 -3 3 -3 1.8 0 1.8 -2 0.2 -8 -1.6 -5.8 -2.4 -7 -4.8 -7 -1.1 0 -3.6 -0.8 -5.7 -1.9 -2 -1 -4.2 -1.6 -4.9 -1.4 -0.6 0.2 -1.6 -1.2 -2.3 -3.1 -0.9 -2.9 -0.8 -4.6 0.5 -9.3 2.9 -9.8 5.1 -13.3 8.5 -13.3 1.6 0 3.2 0.5 3.5 1 0.3 0.6 1.4 1 2.4 1 1.2 0 2.1 1.1 2.7 3.3 0.9 3 1.2 3.2 6.2 3.5 2.9 0.2 5.2 0.6 5.2 1 0 0.4 2 1.6 4.5 2.7 2.5 1.1 4.5 2.3 4.5 2.7 0 0.4 1.6 1 3.5 1.4 2.9 0.5 4 1.4 5.6 4.6 1.1 2.1 2.6 4.1 3.4 4.3 0.8 0.3 2.2 0.7 3 1 1.2 0.4 1.4 0.9 0.6 2.4 -0.8 1.4 -0.8 2.1 0.2 2.4 1.4 0.5 -1.9 4.7 -3.8 4.7 -1.3 0 -8.5 -7.2 -8.5 -8.6 0 -1.9 -7.8 -8.7 -9 -7.9 -0.7 0.4 -1.6 0.2 -2 -0.5 -1.3 -2.1 -5.9 3.9 -6 7.5 0 2.6 1.8 4.9 11.8 14.6 6.4 6.4 12.5 11.9 13.6 12.3 1.4 0.5 3.7 -1.2 9.5 -6.9 5.5 -5.3 8.5 -7.5 10.3 -7.5 2.6 0 8.7 4 12.7 8.4 1.4 1.5 3.5 2.6 5 2.6 1.4 0 3.7 0.9 5.1 2 1.4 1.1 3.1 2 3.8 2 4.9 0.1 -4 11 -16.4 20.2 -0.7 0.5 -1.4 0.3 -1.7 -0.6z"/>
  <path d="M167.8 91.2 c-2.5 -1.5 -5.8 -3.8 -7.3 -5.2 -2.2 -2.1 -2.8 -2.2 -3.5 -1 -0.7 1 -1 1.1 -1 0.3 0 -1.1 19.7 -23.3 20.6 -23.3 0.2 0 0.4 6.3 0.4 14 0 11.8 -0.2 14 -1.5 14 -0.8 0 -1.5 0.9 -1.5 2 0 2.5 -0.4 2.5 -6.2 -0.8z"/>
  <path d="M144 77.1 c0 -0.7 -0.8 -1.1 -1.7 -1 -1 0.2 -3.6 -0.8 -5.8 -2.2 -2.2 -1.3 -5.2 -3 -6.7 -3.7 -1.6 -0.6 -2.8 -1.8 -2.8 -2.7 0 -0.8 4.4 -6 9.7 -11.6 9.4 -9.7 9.8 -10.1 13.3 -9.5 1.9 0.3 5.3 1.5 7.5 2.6 2.1 1.1 4.8 2 5.8 2 1.1 0 1.5 0.4 1.1 1.1 -0.3 0.6 -0.1 1.5 0.6 1.9 1 0.6 -0.5 2.8 -5.3 8.2 -8.9 9.8 -15.7 16.3 -15.7 14.9z"/>
  <path d="M104.4 58.7 c-0.3 -0.9 -1.3 -1.3 -2.5 -1 -2.1 0.6 -6.9 -1.4 -6.9 -2.9 0 -0.4 0.9 -0.8 2 -0.8 1.1 0 2 -0.5 2 -1.1 0 -0.8 -1.3 -1 -3.8 -0.7 -2.4 0.4 -4.5 0 -5.7 -0.8 -1 -0.8 -2.7 -1.4 -3.7 -1.4 -1 0 -2.4 -1.1 -3 -2.5 -0.8 -1.8 -1.8 -2.5 -3.2 -2.3 -2.7 0.3 -4.6 -0.9 -4.6 -3 -0.1 -1.6 -6 -6.2 -8 -6.2 -0.4 0 -1 -0.6 -1.3 -1.4 -0.5 -1.4 5.1 -3.4 9.8 -3.5 1.1 0 4.4 -0.3 7.3 -0.7 11.3 -1.4 29.6 5.3 38.1 14 l4.4 4.5 -4.1 4.1 c-3.8 3.9 -5.1 4.5 -12.2 5.1 -0.8 0.1 -2.1 0.6 -2.7 1.1 -0.9 0.7 -1.5 0.6 -1.9 -0.5z"/>
 </g>
 <g fill="#444a58">
  <path d="M209.8 113.3 l-2.8 -0.4 0 -8.6 0 -8.5 3.1 0.6 c1.7 0.3 4 0.6 5.1 0.6 1.7 0 1.9 0.7 1.6 8.3 -0.3 8.9 -0.4 9 -7 8z"/>
  <path d="M280.5 113 c-0.3 -0.5 -2.2 -1 -4.1 -1 -3.1 0 -3.4 -0.3 -3.4 -2.9 0 -2.8 0.1 -2.9 3.1 -2.1 3.5 1 8.4 -0.5 10.8 -3.3 1.6 -2 9.1 -2.4 9.1 -0.4 0 0.6 -0.9 2.7 -2 4.5 -2.8 4.6 -11.7 8.1 -13.5 5.2z"/>
  <path d="M337.8 112.3 c-1.3 -1.6 -3.8 -6.7 -3.8 -7.8 0 -0.3 1.4 -0.5 3 -0.5 2 0 3 -0.5 3 -1.5 0 -0.8 0.8 -1.5 1.8 -1.5 1.1 0 2.9 2.1 5 5.9 1.7 3.2 3.2 6.1 3.2 6.5 0 0.3 -2.4 0.6 -5.3 0.6 -3.9 0 -5.8 -0.5 -6.9 -1.7z"/>
  <path d="M372 109.1 c0 -4.4 0.3 -5.1 2 -5.1 1.1 0 2 -0.6 2 -1.4 0 -0.7 1 -1.6 2.3 -2 4.6 -1.2 4.8 -1 4.5 6.2 l-0.3 6.7 -5.2 0.3 -5.3 0.3 0 -5z"/>
  <path d="M408 88.6 c0 -24.9 0.1 -25.6 2 -25.6 1.8 0 2 0.7 2.1 7.3 0.1 3.9 0.3 6.4 0.6 5.5 0.2 -1 0.9 -1.8 1.4 -1.8 0.5 0 0.9 -0.7 0.9 -1.5 0 -2 6.6 -2.1 7.7 -0.1 0.4 0.8 1.6 1.5 2.6 1.7 1.3 0.3 3.4 4 6.9 12.7 2.8 6.7 5.6 12.1 6.1 11.9 0.6 -0.2 4.3 -8.8 8.4 -19.3 8 -20.7 9.4 -23.9 10.6 -23.6 0.4 0.1 3 0.2 5.7 0.2 4.3 0 5 0.3 5 1.9 0 1.5 -0.8 2.1 -3.2 2.4 l-3.3 0.4 3.3 0.1 3.2 0.2 0 26.5 0 26.5 -4.5 0 -4.5 0 0 -19.5 c0 -10.9 -0.4 -19.5 -0.9 -19.5 -0.5 0 -1.4 1.2 -1.9 2.8 -0.6 1.5 -2.8 7 -5 12.2 -3.6 8.9 -4.1 9.5 -6.5 9.2 -2.1 -0.2 -2.7 0.2 -2.7 1.8 0 1.7 -0.6 2 -4 2 -3.3 0 -4 0.3 -4 2 0 5.1 -2.9 0.9 -7.9 -11.3 -9.4 -23.2 -8.5 -23.2 -9.1 -0.2 l-0.5 20 -4.2 0.3 -4.3 0.3 0 -25.5z"/>
  <path d="M263 104 c0 -0.5 -1.1 -1.2 -2.4 -1.6 -4.5 -1.1 -5.1 -13 -1 -21.2 5.6 -11.2 21.1 -14.8 30 -7 4.7 4.1 6.3 7.5 7.1 14.8 l0.6 6 -15.3 0 -15.2 0 0.6 3.2 c0.3 1.7 1.4 4 2.3 5 1.5 1.7 1.4 1.8 -2.5 1.8 -2.3 0 -4.2 -0.4 -4.2 -1z m24.2 -18 c-0.7 -3.4 -3.4 -6 -7.3 -7.2 -4.8 -1.4 -7.8 -0.2 -11.2 4.4 -3.5 4.6 -2.1 5.4 8.9 4.8 8.1 -0.4 9.8 -0.8 9.6 -2z"/>
  <path d="M308.7 96.3 c-0.4 -0.3 -0.7 -1.6 -0.7 -2.8 0 -1.3 -0.7 -2.8 -1.5 -3.5 -1.3 -1.1 -1.5 -4 -1.3 -17.9 l0.3 -16.6 14.5 0 c15.7 0.1 19.5 1.1 24.8 6.8 6.4 6.8 4.1 22.1 -3.9 26.2 -3.3 1.7 -3.3 1.9 -1.9 4.6 1 1.7 0.7 1.9 -2.4 1.9 -3.6 0 -4.6 -1.2 -4.6 -5.6 0 -1.5 1.8 -4.1 5 -7.2 5.1 -5 6.6 -9.2 3.2 -9.2 -1.8 0 -4.8 -5.4 -4.4 -8 0.2 -1.2 0.1 -1.2 -0.6 -0.1 -0.7 0.9 -1.5 1 -2.8 0.3 -1.1 -0.5 -3.6 -1.2 -5.6 -1.6 -2.4 -0.4 -3.8 -1.3 -3.8 -2.1 0 -1.2 -1.5 -1.5 -6.7 -1.5 l-6.8 0 0.5 9.6 c0.5 9.7 0.5 9.7 4.1 12.6 2.4 2 5.1 3 8.7 3.5 5 0.6 5.2 0.7 5.2 3.7 l0 3.1 -6 -0.3 c-5.9 -0.4 -6 -0.3 -6 2.2 0 2.3 -0.4 2.6 -3.3 2.6 -1.9 0 -3.7 -0.3 -4 -0.7z"/>
  <path d="M234 90 c0 -2.2 0.5 -4 1 -4 0.6 0 1 -0.7 1 -1.5 0 -0.8 0.6 -1.5 1.4 -1.5 0.7 0 1.9 -0.7 2.6 -1.5 0.7 -0.8 2.3 -1.5 3.6 -1.5 1.5 0 2.4 -0.6 2.4 -1.5 0 -0.8 0.9 -1.5 2 -1.5 1.2 0 2 0.7 2 1.6 0 2.9 -4 8.2 -7.1 9.6 -2.4 1 -2.9 1.8 -2.4 3.6 0.5 2 0.2 2.2 -3 2.2 -3.4 0 -3.5 -0.1 -3.5 -4z"/>
  <path d="M379 88 c0 -1.1 -0.7 -2 -1.5 -2 -0.8 0 -1.5 -0.7 -1.5 -1.5 0 -0.8 -0.9 -1.5 -2 -1.5 -1.8 0 -2 -0.8 -2.2 -9.2 l-0.3 -9.3 -8.2 -0.3 c-7.5 -0.3 -8.3 -0.5 -8.3 -2.2 0 -1.3 0.7 -2 2 -2 1.1 0 2 -0.4 2 -1 0 -1.5 11.4 -1.2 12.9 0.3 1 1 1.4 0.9 2.2 -0.5 0.6 -1.1 2.2 -1.8 3.7 -1.8 1.6 0 3.3 -0.5 3.8 -1 0.7 -0.7 4.6 -1 9.5 -0.8 l8.4 0.3 0.3 4.3 0.3 4.2 -8.5 0 -8.6 0 0 13 c0 12.3 -0.1 13 -2 13 -1.3 0 -2 -0.7 -2 -2z"/>
  <path d="M207.2 68.8 c0.3 -13 0.3 -13.3 2.6 -13.6 2.3 -0.3 2.3 -0.2 1.6 5.7 -0.7 6.6 0.3 9.1 3.7 9.1 1.6 0 1.9 0.8 1.9 4.5 0 4.3 -0.1 4.5 -3 4.5 -2 0 -3 0.5 -3 1.5 0 0.8 -0.9 1.5 -2 1.5 -2 0 -2 -0.5 -1.8 -13.2z"/>
  <path d="M240 73.4 c0 -5.3 -4.3 -9 -11.5 -9.9 -5.2 -0.6 -5.5 -0.8 -5.5 -3.5 0 -3.4 2.1 -4.4 9.1 -4.3 5.3 0.1 11.8 3.1 14.8 6.9 2.9 3.7 2.7 4.4 -1.6 4.5 -2.1 0 -3.2 0.3 -2.5 0.6 0.7 0.3 1.2 2.3 1.2 4.9 0 3.7 -0.3 4.4 -2 4.4 -1.6 0 -2 -0.7 -2 -3.6z"/>
  <path d="M408 58.5 l0 -3.5 4.9 0 c3.2 0 5.5 0.6 6.5 1.6 2.6 2.5 1.9 3.4 -2.9 3.4 -2.5 0 -4.5 0.5 -4.5 1 0 0.6 -0.9 1 -2 1 -1.6 0 -2 -0.7 -2 -3.5z"/>
 </g>
 <g fill="#4c525e">
  <path d="M240.3 112.8 c-0.4 -0.6 -3.1 -5.4 -5.8 -10.7 l-5.1 -9.6 -5.9 0 -6 0 -0.3 3.8 c-0.2 2.4 -0.8 3.7 -1.8 3.7 -0.8 0 -1.4 0.9 -1.4 2 0 1.1 0.7 2 1.5 2 0.8 0 1.5 0.7 1.5 1.5 0 0.8 -0.7 1.5 -1.5 1.5 -0.8 0 -1.5 -0.5 -1.5 -1.1 0 -1.3 -2 -3.3 -4.2 -4.2 -1.3 -0.4 -1.8 0.1 -2 2.1 -0.2 1.5 -0.4 -0.8 -0.5 -5 -0.2 -7 0 -7.8 1.6 -7.8 1.2 0 2.1 1 2.5 2.5 1 4 2.6 2.9 2.6 -1.7 0 -2.4 0.4 -4.8 0.8 -5.4 0.4 -0.6 4.4 -1.3 8.9 -1.6 8.6 -0.5 12 -1.9 14.8 -6.1 2.3 -3.6 2.4 -6.9 0.2 -10.1 -1.6 -2.3 -1.7 -3 -0.6 -3.7 0.8 -0.5 1.9 -0.9 2.6 -0.9 0.6 0 1.3 -0.5 1.5 -1.2 0.3 -0.8 1.2 -0.7 3.4 0.3 4.4 2.1 6.1 8.3 4.3 15.2 -1.2 4.3 -1.8 5.2 -3.5 4.9 -1.2 -0.1 -2.7 0.4 -3.4 1.3 -0.7 0.8 -1.9 1.5 -2.7 1.5 -0.9 0 -1.3 0.6 -0.9 1.5 0.3 0.9 0 1.5 -0.9 1.5 -0.8 0 -1.5 0.5 -1.5 1 0 0.6 0.7 1 1.5 1 1.2 0 6.5 7.5 6.5 9.3 0 0.4 -1.1 0.7 -2.5 0.7 -2.5 0 -3.3 1.4 -1.5 2.5 0.6 0.3 1 1.9 1 3.6 0 2.2 0.5 2.9 2 2.9 1.3 0 2 0.7 2 2 0 1.5 -0.7 2 -2.4 2 -1.4 0 -2.8 -0.5 -3.3 -1.2z"/>
  <path d="M267.3 112.1 c-2.8 -1.3 -4.9 -3.3 -6.6 -6.3 -5 -8.7 -4 -15 1.4 -9 1.6 1.8 3.7 3.2 4.6 3.2 1.5 0 1.6 0.2 0.3 1 -1.2 0.7 -1.2 1 -0.1 1 0.7 0 2.6 1.1 4.3 2.5 1.6 1.4 3.6 2.5 4.4 2.5 0.9 0 1.2 0.5 0.9 1 -0.4 0.6 0.8 1 3 1 2.2 0 3.8 0.6 4.1 1.4 0.3 0.8 1.2 1.2 1.9 0.9 0.8 -0.2 2 -0.1 2.6 0.3 4.5 2.8 -14.7 3.2 -20.8 0.5z"/>
  <path d="M434 112.5 c-0.6 -0.8 -1.8 -3.6 -2.6 -6.2 -1.3 -4.3 -1.3 -4.9 0.1 -6 0.9 -0.6 1.6 -1.5 1.5 -2 -0.2 -1.6 3.3 -1.5 4.2 0.1 0.8 1.4 1.3 1.2 3.2 -1.6 2.3 -3.5 6.1 -5.3 5 -2.4 -0.4 1.1 -0.1 1.6 1 1.6 0.9 0 1.6 0.4 1.6 0.9 0 1.5 -5.1 14.5 -6.2 15.9 -1.4 1.7 -6.3 1.5 -7.8 -0.3z"/>
  <path d="M342.5 109 c-0.3 -0.5 -1.2 -0.7 -2 -0.4 -2.4 1 -5.8 -2.3 -9.4 -9.3 -3 -5.6 -4.1 -6.9 -6.6 -7.4 -1.6 -0.4 -2.2 -0.7 -1.2 -0.8 3 -0.2 1.8 -2.1 -1.3 -2.1 -2 0 -3 0.5 -3 1.5 0 0.8 -0.7 1.5 -1.5 1.5 -1.1 0 -1.5 1.1 -1.5 4 0 3.3 -0.3 4 -2 4 -1.6 0 -2 -0.7 -2 -3 0 -2 0.5 -3 1.5 -3 0.8 0 1.5 -0.9 1.5 -2 0 -1.1 0.7 -2 1.5 -2 0.8 0 1.5 -0.4 1.5 -1 0 -0.5 -0.8 -1 -1.8 -1 -0.9 0 -3.4 -1.4 -5.5 -3.1 -2.9 -2.4 -3.7 -2.7 -3.7 -1.4 0 0.9 1 2.5 2.3 3.5 1.2 1 1.9 2.1 1.6 2.4 -0.3 0.4 -1.8 -0.3 -3.2 -1.5 -2.1 -1.5 -2.7 -2.9 -2.7 -5.7 0 -2.8 0.3 -3.3 1 -2.2 0.7 1.1 1 -0.5 1 -5.2 0 -3.8 -0.4 -6.8 -0.9 -6.8 -0.6 0 -0.9 -2.8 -0.8 -6.2 0.2 -5.6 0.4 -6.2 2.5 -6.3 1.3 -0.1 2.5 0.2 2.8 0.7 0.3 0.4 5.4 0.8 11.4 0.8 10.1 0 16 1.1 16 3.1 0 0.5 1.4 2.4 3.1 4.4 2.4 2.7 3.3 4.8 3.8 9.4 l0.7 5.9 -4.2 4.1 c-2.3 2.2 -3.9 4.3 -3.6 4.6 0.3 0.3 -0.3 0.5 -1.4 0.6 -1.1 0 -1.3 0.3 -0.6 0.6 0.6 0.2 1 0.9 0.6 1.4 -0.3 0.5 0.1 0.9 0.9 0.9 1.9 0 8.3 12 6.5 12.1 -0.7 0 -0.4 0.4 0.7 0.9 1.6 0.7 1.7 0.9 0.3 0.9 -1.1 0.1 -1.5 0.7 -1.1 2.1 0.6 2.1 -0.1 2.7 -1.2 1z m-7.9 -28.2 c1.8 -1.7 2.9 -4.2 3.4 -7.2 0.4 -2.5 0.3 -4.3 -0.1 -4 -0.4 0.2 -1.3 -0.4 -1.8 -1.5 -0.6 -1.1 -2 -2.2 -3 -2.6 -1.3 -0.4 -1.8 -1.2 -1.4 -2.8 0.4 -1.9 0.3 -2 -0.9 -0.7 -0.7 0.8 -2.4 1.4 -3.7 1.2 -1.3 -0.2 -4.4 -0.1 -6.8 0.3 l-4.3 0.6 0 10.1 0 10 8 -0.4 c7 -0.3 8.3 -0.6 10.6 -3z m-22.9 -20 c-0.2 -1.3 -0.4 -0.5 -0.4 1.7 -0.1 2.2 0.1 3.2 0.4 2.3 0.2 -1 0.2 -2.8 0 -4z"/>
  <path d="M372 105.6 c0 -3.9 0.3 -4.6 2 -4.6 1.3 0 2 -0.7 2 -2 0 -1.1 0.7 -2 1.5 -2 0.8 0 1.5 -0.4 1.5 -1 0 -0.5 0.9 -1 2 -1 1.9 0 2.1 0.6 1.9 4.9 -0.2 4.1 -0.5 4.8 -2.1 4.3 -1.4 -0.3 -1.8 0.1 -1.8 2.4 0 2.2 -0.3 2.5 -1.2 1.6 -1.6 -1.6 -2.3 -1.5 -4.2 0.4 -1.5 1.4 -1.6 1.1 -1.6 -3z"/>
  <path d="M460.6 92.5 c-0.3 -0.9 -0.6 -5.8 -0.7 -10.8 0 -5.1 -0.3 -8.7 -0.5 -8.1 -0.2 0.6 -1.7 0.9 -3.3 0.6 -2.2 -0.3 -2.9 0.1 -3.4 1.7 -0.3 1.2 -1.2 2.1 -2 2.1 -1.3 0 -1.4 -0.6 -0.7 -3.1 0.5 -1.8 0.7 -3.6 0.4 -4 -0.3 -0.5 0 -1 0.5 -1 0.6 -0.1 1.5 -0.2 2 -0.3 0.5 0 1.3 -0.5 1.8 -1 0.5 -0.5 0.3 -0.6 -0.4 -0.2 -1.4 0.8 -1.7 -0.3 -0.7 -2.8 0.8 -2.2 3.6 -0.8 2.9 1.5 -0.4 1.1 -0.2 1.9 0.4 1.9 1.2 0 3.3 -3.5 2.5 -4.3 -0.3 -0.3 -0.7 -1.3 -0.9 -2.4 -0.2 -1 -0.4 -2 -0.4 -2.2 -0.1 -0.2 -0.7 0.2 -1.5 0.8 -1.1 0.9 -1.5 0.8 -2 -0.4 -0.3 -0.9 -0.2 -1.3 0.4 -1 0.6 0.3 1 -0.2 1 -1.2 0 -1.6 0.7 -1.8 4.8 -1.6 2.6 0.1 5.3 0.2 6 0.2 1.8 0.1 1.6 7.1 -0.3 7.1 -1.2 0 -1.5 1.4 -1.5 6.5 0 5.1 0.3 6.5 1.5 6.5 2.1 0 1.9 2.8 -0.2 3.3 -1.7 0.4 -1.7 0.5 0 0.6 1 0.1 1.7 0.9 1.7 2.1 0 1.2 -0.7 2 -1.7 2.1 -1.6 0 -1.5 0.1 0.1 0.8 1.9 0.7 1.9 0.8 -0.1 1.3 -1.4 0.4 -2.3 1.5 -2.5 3.4 -0.3 3.1 -2.3 4.3 -3.2 1.9z"/>
  <path d="M379 91 c0 -1.4 -0.9 -2.1 -3.5 -2.6 l-3.5 -0.6 0.1 -9.2 c0.1 -5 0.3 -8.3 0.6 -7.3 0.2 0.9 0.9 1.7 1.4 1.7 0.5 0 0.9 0.7 0.9 1.5 0 0.8 -0.4 1.5 -1 1.5 -0.5 0 -1 0.9 -1 2 0 2.1 1.5 2.7 2.5 1 0.4 -0.6 0.9 -2.7 1.1 -4.8 0.9 -8.3 1.4 -9.2 4.2 -9.1 2.4 0.2 2.4 0.2 0.5 0.6 -2.8 0.5 -2.9 1.1 -0.5 2.9 1.6 1.3 1.6 1.4 0 0.8 -1.6 -0.5 -1.8 0.2 -1.8 6.5 0 5.4 0.3 7.1 1.4 7.1 0.7 0 1.6 1.4 2 3.1 1.1 5.4 0.8 6.9 -1.4 6.9 -1.3 0 -2 -0.7 -2 -2z"/>
  <path d="M207.2 77.8 c0 -4.2 0.3 -5.6 0.9 -4.3 0.4 1.1 0.8 1.4 0.8 0.7 0.1 -0.8 0.6 -1 1.4 -0.6 0.6 0.4 0.4 -0.2 -0.7 -1.4 -1.6 -1.9 -1.7 -2.3 -0.3 -3.7 0.9 -0.8 2.9 -1.5 4.6 -1.5 2.8 0 3.1 0.3 3.1 3 0 2 -0.5 3 -1.5 3 -0.8 0 -1.5 0.7 -1.5 1.5 0 0.8 0.7 1.5 1.5 1.5 0.9 0 1.5 0.9 1.5 2.5 0 2.1 -0.5 2.5 -3 2.5 -2 0 -3 0.5 -3 1.5 0 0.8 -0.9 1.5 -1.9 1.5 -1.7 0 -1.9 -0.8 -1.9 -6.2z"/>
  <path d="M409.5 79.8 c-0.2 -0.7 -0.6 -6.3 -0.9 -12.4 l-0.5 -11.1 5.1 0.5 c3.6 0.3 4.9 0.2 4.4 -0.6 -0.4 -0.8 -0.2 -1 0.8 -0.6 0.8 0.3 1.7 1.1 2 1.7 1.2 2.8 7.6 19.1 7.6 19.4 0 0.2 -1.1 0.3 -2.4 0.3 -1.4 0 -3.2 0.7 -4 1.6 -1.5 1.4 -1.6 1.3 -1.6 -1 0 -2.4 -1.6 -4.3 -2.7 -3.2 -0.3 0.3 -0.6 1.9 -0.7 3.6 -0.1 2.7 -0.4 3 -3.4 3 -1.8 0 -3.5 -0.6 -3.7 -1.2z"/>
  <path d="M369.3 63.2 c-1.6 -1.6 -1.5 -1.7 1.5 -2 1.7 -0.2 3.8 0.1 4.7 0.5 1.2 0.7 0.8 1.1 -1.5 2 -2.5 0.9 -3.3 0.9 -4.7 -0.5z"/>
  <path d="M388 62.5 c0 -0.9 1 -1.5 2.6 -1.5 1.4 0 2.3 -0.4 1.9 -1 -0.3 -0.5 0.1 -1 1 -1 0.9 0 1.3 -0.4 1 -1 -0.3 -0.5 -0.1 -1 0.4 -1 1.4 0 1.4 1 -0.1 4.3 -1 2 -2 2.7 -4 2.7 -1.8 0 -2.8 -0.5 -2.8 -1.5z"/>
  <path d="M397 57.9 c0 -1.9 -0.4 -2 -4.2 -1.4 -3.1 0.4 -3.9 0.3 -2.8 -0.4 3.2 -2.2 10 -0.6 10 2.4 0 0.8 -0.7 1.5 -1.5 1.5 -0.9 0 -1.5 -0.9 -1.5 -2.1z"/>
 </g>
 <g fill="#4f5866">
  <path d="M241.3 113 c-1.5 -0.6 -2.3 -1.8 -2.3 -3.3 0 -1.3 -0.9 -3.3 -2 -4.5 -1.1 -1.2 -2 -2.8 -2 -3.6 0 -0.7 -0.7 -1.6 -1.4 -1.9 -0.8 -0.3 -1.8 -2.2 -2.2 -4.1 -0.3 -2 -1 -3.3 -1.5 -3 -0.5 0.3 -0.9 -0.4 -0.9 -1.4 0 -2.4 -1.8 -3.2 -7 -3.2 -4.3 0 -5 1 -5 7.1 0 2.8 -0.4 3.9 -1.5 3.9 -0.9 0 -1.5 0.9 -1.5 2.3 0 2 -0.2 2 -2.9 -1.1 -1.9 -2.1 -3.1 -2.8 -3.4 -2 -0.2 0.7 -0.5 -2.5 -0.6 -7.2 -0.1 -8.2 1.2 -15 2.9 -15 0.5 0 1.4 -0.9 2 -2 0.8 -1.6 0.8 -1.8 -0.4 -1.4 -1.7 0.7 -2.8 -0.9 -2 -3 0.4 -1 1.8 -1.6 4 -1.6 3 0 3.4 0.3 3.4 2.5 0 1.6 -0.6 2.5 -1.5 2.5 -0.9 0 -1.5 0.9 -1.5 2.5 0 1.5 0.6 2.5 1.4 2.5 0.9 0 1.6 1.2 1.8 2.8 0.3 2.6 0.5 2.7 7.9 3.2 4.9 0.3 8 0.1 8.7 -0.6 0.5 -0.6 2.1 -2 3.5 -3.1 1.8 -1.4 2.7 -3.3 3.2 -6.8 0.3 -2.7 0.8 -5.1 1 -5.3 0.2 -0.2 2.2 -0.6 4.4 -0.9 2.7 -0.4 4.1 -0.2 4.1 0.6 0 0.6 -0.7 1.1 -1.5 1.1 -2.5 0 -1.8 3.8 0.8 4.3 l2.2 0.4 -2.3 0.8 c-1.2 0.4 -2.5 1.8 -2.8 3 -0.6 2.3 -4.4 6.6 -4.4 5 0 -0.4 0.8 -1.4 1.8 -2.2 0.9 -0.8 0.2 -0.6 -1.7 0.4 -1.9 1 -3.6 2.6 -3.9 3.6 -0.2 0.9 -1.3 1.7 -2.2 1.7 -3 0 -2.4 5.9 0.7 7.1 1.2 0.4 2.3 1.3 2.3 1.9 0 0.5 0.9 1 1.9 1 1.4 0 3.2 2.4 6.4 8.3 2.5 4.5 4.3 8.5 4 9 -0.6 1 -7.3 0.8 -10 -0.3z"/>
  <path d="M268.5 112.4 c-3.8 -1.3 -6.5 -3.7 -6.5 -5.7 0 -0.5 0.6 -0.7 1.4 -0.4 0.7 0.3 1.8 0.1 2.3 -0.4 0.7 -0.7 2.3 -0.3 4.6 1.1 2.6 1.6 3.5 2.7 3.2 4.2 -0.6 2.8 -0.5 2.8 -5 1.2z m0.5 -4.9 c-0.7 -0.8 -1.6 -1.5 -2.1 -1.5 -0.5 0 -0.9 0.7 -0.9 1.5 0 0.9 0.9 1.5 2.1 1.5 1.8 0 1.9 -0.2 0.9 -1.5z"/>
  <path d="M282 113 c0 -0.5 0.6 -1 1.4 -1 0.8 0 1.8 0.5 2.1 1 0.3 0.6 -0.3 1 -1.4 1 -1.2 0 -2.1 -0.4 -2.1 -1z"/>
  <path d="M435 109.6 c0 -0.2 1.6 -2 3.5 -3.9 1.9 -1.9 3.5 -3.4 3.5 -3.2 0 0.1 -0.7 1.9 -1.5 3.9 -1 2.4 -2.2 3.6 -3.5 3.6 -1.1 0 -2 -0.2 -2 -0.4z"/>
  <path d="M214 105 c0 -0.5 0.7 -1 1.5 -1 0.8 0 1.5 0.5 1.5 1 0 0.6 -0.7 1 -1.5 1 -0.8 0 -1.5 -0.4 -1.5 -1z"/>
  <path d="M372.5 104.2 c-1 -1.1 -0.5 -20.3 0.5 -19.7 0.6 0.4 2.2 -0.1 3.5 -0.9 2.4 -1.6 2.5 -1.5 2.5 0.4 0 1.1 0.6 2 1.4 2 1.6 0 2.9 6.2 2.4 11.6 -0.2 2.4 -0.7 3 -2 2.6 -1.4 -0.3 -1.8 0.2 -1.8 1.9 0 2 -0.5 2.4 -3 2.5 -1.6 0.1 -3.2 -0.1 -3.5 -0.4z"/>
  <path d="M336.2 102.7 c-3.7 -1.7 -2.4 -8.5 1.5 -7.3 1.9 0.6 2.4 4 0.9 6.4 -0.5 0.8 -0.2 1 0.8 0.6 0.9 -0.3 1.6 -0.2 1.6 0.3 0 1.2 -2 1.2 -4.8 0z"/>
  <path d="M331.9 89.1 c-0.3 -0.9 -2.3 -1.3 -6.4 -1.3 -6.6 0 -8.4 -0.6 -6.4 -1.9 1.1 -0.7 0.9 -0.9 -0.6 -1 -1.1 -0.1 1.8 -0.5 6.4 -0.9 7.3 -0.6 8.7 -1.1 10.3 -3.1 1 -1.3 2.3 -3 2.8 -3.6 0.6 -0.7 1.4 -2.1 1.8 -3.2 0.6 -1.5 1.2 -1.7 3.1 -1 1.9 0.7 2.2 1.4 1.7 3.4 -0.4 1.5 -0.2 2.5 0.4 2.5 1.6 0 -6.2 7 -8 7.1 -0.8 0.1 -2 0.1 -2.7 0 -0.6 -0.1 -1.3 0.9 -1.5 2.1 -0.2 1.4 -0.5 1.8 -0.9 0.9z"/>
  <path d="M415.1 73.3 c-1.6 -1.7 -1.1 -2.5 0.8 -1.4 0.7 0.5 1.2 1.3 1 1.9 -0.2 0.6 -1 0.4 -1.8 -0.5z"/>
  <path d="M311 72 c-0.1 -0.8 -0.2 -1.8 -0.1 -2.2 0 -0.5 -0.2 -0.7 -0.6 -0.7 -2.9 0.5 -3.5 -0.2 -2.9 -3.4 0.3 -1.7 0.2 -4.6 -0.3 -6.3 l-0.9 -3.1 12.7 0.4 c13.1 0.5 15.9 0.8 14.7 2.1 -1 0.9 -1.2 0.9 -10.4 1.1 l-7.9 0.1 0.3 5.4 c0.2 4.8 0 5.3 -1.6 4.9 -1.2 -0.3 -2 0.2 -2.3 1.4 -0.3 1.3 -0.5 1.4 -0.7 0.3z"/>
  <path d="M419.2 70.4 c0.3 -0.3 -0.3 -2.7 -1.3 -5.5 l-1.9 -4.9 2.3 0 c2.3 0 4.7 1.7 4.7 3.2 0 0.4 -0.7 0.8 -1.6 0.8 -0.8 0 -1.2 0.5 -0.9 1.1 0.4 0.6 1.3 0.8 2 0.5 0.8 -0.3 1.7 0.7 2.4 2.5 1 2.9 0.9 2.9 -2.6 2.9 -2 0 -3.4 -0.2 -3.1 -0.6z"/>
  <path d="M414 68 c-1.3 -1.1 -2.7 -2 -3.2 -2 -0.4 0 -0.8 -0.7 -0.8 -1.6 0 -1.1 0.5 -1.4 1.6 -1 0.9 0.3 1.9 0.6 2.4 0.6 0.4 0 1 0.9 1.3 2.1 0.3 1.2 1 1.8 1.6 1.4 0.6 -0.3 1.1 -0.2 1.1 0.4 0 2 -1.8 2 -4 0.1z"/>
  <path d="M391 63 c0 -0.5 0.7 -1 1.5 -1 0.8 0 1.5 0.5 1.5 1 0 0.6 -0.7 1 -1.5 1 -0.8 0 -1.5 -0.4 -1.5 -1z"/>
 </g>
 <g fill="#3a4454">
  <path d="M207.7 113.3 c-1.3 -1.2 -0.7 -3.3 0.8 -3.3 0.8 0 1.5 -0.4 1.5 -1 0 -0.5 0.5 -1 1.1 -1 0.5 0 0.7 0.5 0.4 1 -0.3 0.6 0.1 1 0.9 1 1.1 0 1.6 -0.9 1.6 -3 0 -2 0.5 -3 1.5 -3 2.2 0 2.1 8.6 -0.1 9.4 -2.1 0.8 -6.9 0.8 -7.7 -0.1z"/>
  <path d="M305.7 113.3 c-0.4 -0.3 -0.7 -8.3 -0.7 -17.7 0 -11.4 0.4 -16.6 1 -15.6 0.5 0.8 1 2.4 1 3.5 0 1.1 0.9 2.6 2 3.3 1.2 0.7 2 2.3 2 3.8 0 1.7 0.7 2.8 1.9 3.1 2.4 0.6 3.1 3.1 3.1 11 0 8.6 -0.4 9.3 -5.4 9.3 -2.4 0 -4.6 -0.3 -4.9 -0.7z"/>
  <path d="M408.2 99.8 c0.2 -14.6 0.6 -12.9 1 4.5 0.2 5.3 0 9.7 -0.4 9.7 -0.5 0 -0.7 -6.4 -0.6 -14.2z"/>
  <path d="M293 104.9 c-1.2 -0.7 -1.1 -0.9 0.5 -1 1.4 -0.1 1 -0.4 -1 -0.9 l-3 -0.8 3.3 -0.1 c2.2 -0.1 3.2 0.4 3.2 1.3 0 2 -1.3 2.7 -3 1.5z"/>
  <path d="M270 93.5 c0 -1.2 1.6 -1.5 8 -1.5 5.1 0 8 0.4 8 1.1 0 0.7 2 1 5.4 0.7 3 -0.1 5.2 0 4.9 0.5 -0.2 0.4 -6.2 0.7 -13.4 0.7 -10.8 0 -12.9 -0.2 -12.9 -1.5z"/>
  <path d="M294.5 91 c1.7 -0.7 1.7 -0.9 0.3 -0.9 -2.2 -0.1 -2.6 -5.1 -0.4 -5.1 1.5 0 2.6 2.1 2.6 5.1 0 1.3 -0.7 1.9 -2.2 1.8 -2.2 0 -2.2 -0.1 -0.3 -0.9z"/>
  <path d="M271.5 89 c-0.4 -0.6 0.7 -1 2.7 -0.9 2.7 0 3 0.2 1.3 0.9 -2.7 1.2 -3.3 1.2 -4 0z"/>
  <path d="M283 88.9 c0 -0.6 0.6 -0.9 1.4 -0.6 1.9 0.8 3.8 -1.6 3.1 -3.9 -0.4 -1.3 -0.2 -1.2 0.6 0.3 0.9 1.8 0.8 2.5 -0.4 3.7 -1.8 1.8 -4.7 2.1 -4.7 0.5z"/>
  <path d="M273.5 77 c-0.8 -1.2 1.7 -2.3 4.1 -1.8 1 0.1 1.9 0.9 2.2 1.6 0.5 1.5 -5.4 1.7 -6.3 0.2z"/>
  <path d="M209.2 71.8 c-1.4 -1.4 -1.6 -13.6 -0.3 -15.7 0.7 -1.1 3.7 -1.3 14.2 -0.9 15 0.4 20.9 2.1 11.6 3.1 -7.1 0.9 -8.7 1.5 -8 3.3 0.4 1 -0.2 1.4 -2 1.4 -1.4 0 -3.7 0.4 -5.1 1 -2.2 0.8 -2.6 1.6 -2.6 5 0 2.9 -0.4 4 -1.5 4 -0.8 0 -1.5 -0.8 -1.5 -1.7 -0.1 -1.7 -0.1 -1.7 -1.1 0 -1.2 2 -2.1 2.1 -3.7 0.5z"/>
  <path d="M344 65 c0 -0.5 0.7 -1 1.5 -1 0.8 0 1.5 0.5 1.5 1 0 0.6 -0.7 1 -1.5 1 -0.8 0 -1.5 -0.4 -1.5 -1z"/>
  <path d="M354.4 62.7 c-0.3 -0.9 -0.4 -2.8 -0.2 -4.4 l0.3 -2.8 20.8 -0.3 c11.8 -0.1 21.5 0.2 22.5 0.7 1.3 0.8 1.1 0.9 -1.3 0.8 -8.3 -0.3 -11.4 0.3 -12 2.4 -0.6 1.6 -1.2 1.9 -3.6 1.4 -2.1 -0.5 -3.1 -0.2 -3.5 0.9 -0.9 2.3 -7.4 3.3 -8.6 1.2 -0.9 -1.7 -6.4 -2.3 -7 -0.7 -0.1 0.5 -1.8 1.2 -3.6 1.6 -2.4 0.5 -3.3 0.3 -3.8 -0.8z"/>
  <path d="M342 61.5 c-0.7 -0.8 -0.8 -1.5 -0.2 -1.5 0.5 0 1.5 0.7 2.2 1.5 0.7 0.8 0.8 1.5 0.2 1.5 -0.5 0 -1.5 -0.7 -2.2 -1.5z"/>
 </g>
</svg>